# This file uses centimeters as units for non-parametric coordinates.

mtllib leg.mtl
g default
v -0.192386 -1.311958 0.176881
v 0.192386 -1.311958 0.176881
v -0.192386 0.000000 0.176881
v 0.192386 0.000000 0.176881
v -0.192386 0.000000 -0.176881
v 0.192386 0.000000 -0.176881
v -0.192386 -1.311958 -0.176881
v 0.192386 -1.311958 -0.176881
vt 0.153948 0.007314
vt 0.249441 0.012851
vt 0.153948 0.007314
vt 0.481847 0.559179
vt 0.628414 0.699721
vt 0.245969 0.386345
vt 0.162704 0.011565
vt 0.628414 0.699721
vt 0.481847 0.559179
vt 0.631298 0.562315
vt 0.023749 0.488654
vt 0.024129 0.007212
vt 0.024129 0.007212
vt 0.023749 0.488654
vt 0.162704 0.011565
vt 0.249441 0.012851
vt 0.478964 0.696585
vt 0.153567 0.488757
vt 0.478964 0.696585
vt 0.159231 0.385059
vt 0.159231 0.385059
vt 0.153567 0.488757
vt 0.245969 0.386345
vt 0.631298 0.562315
vn 0.000000 0.000000 1.000000
vn 0.000000 0.000000 1.000000
vn 0.000000 0.000000 1.000000
vn 0.000000 0.000000 1.000000
vn 0.000000 1.000000 0.000000
vn 0.000000 1.000000 0.000000
vn 0.000000 1.000000 0.000000
vn 0.000000 1.000000 0.000000
vn 0.000000 0.000000 -1.000000
vn 0.000000 0.000000 -1.000000
vn 0.000000 0.000000 -1.000000
vn 0.000000 0.000000 -1.000000
vn 0.000000 -1.000000 0.000000
vn 0.000000 -1.000000 0.000000
vn 0.000000 -1.000000 0.000000
vn 0.000000 -1.000000 0.000000
vn 1.000000 0.000000 0.000000
vn 1.000000 0.000000 0.000000
vn 1.000000 0.000000 0.000000
vn 1.000000 0.000000 0.000000
vn -1.000000 0.000000 0.000000
vn -1.000000 0.000000 0.000000
vn -1.000000 0.000000 0.000000
vn -1.000000 0.000000 0.000000
s off
g leg:pCube3group1
usemtl lambert2SG
f 1/15/1 2/2/2 4/23/3 3/21/4
f 3/4/5 4/24/6 6/5/7 5/19/8
f 5/6/9 6/20/10 8/7/11 7/16/12
f 7/8/13 8/17/14 2/9/15 1/10/16
f 2/18/17 8/11/18 6/12/19 4/3/20
f 7/13/21 1/1/22 3/22/23 5/14/24
