# This file uses centimeters as units for non-parametric coordinates.

mtllib body.mtl
g default
v -0.192386 -0.655979 0.443270
v 0.192386 -0.655979 0.443270
v -0.192386 0.655979 0.443270
v 0.192386 0.655979 0.443270
v -0.192386 0.655979 -0.443270
v 0.192386 0.655979 -0.443270
v -0.192386 -0.655979 -0.443270
v 0.192386 -0.655979 -0.443270
vt 0.435367 0.010803
vt 0.315022 0.005930
vt 0.507816 0.368947
vt 0.438486 0.379948
vt 0.317585 0.497175
vt 0.501751 0.370124
vt 0.449371 0.002325
vt 0.367670 0.992379
vt 0.252687 0.756408
vt 0.367708 0.756423
vt 0.620471 0.004639
vt 0.620448 0.368983
vt 0.311898 0.010767
vt 0.311872 0.373513
vt 0.256867 0.005914
vt 0.501777 0.002341
vt 0.252649 0.992364
vt 0.507840 0.004603
vt 0.313963 0.379697
vt 0.449345 0.370108
vt 0.256839 0.383863
vt 0.435340 0.373548
vt 0.314993 0.383878
vt 0.442107 0.497426
vn 0.000000 0.000000 1.000000
vn 0.000000 0.000000 1.000000
vn 0.000000 0.000000 1.000000
vn 0.000000 0.000000 1.000000
vn 0.000000 1.000000 0.000000
vn 0.000000 1.000000 0.000000
vn 0.000000 1.000000 0.000000
vn 0.000000 1.000000 0.000000
vn 0.000000 0.000000 -1.000000
vn 0.000000 0.000000 -1.000000
vn 0.000000 0.000000 -1.000000
vn 0.000000 0.000000 -1.000000
vn 0.000000 -1.000000 0.000000
vn 0.000000 -1.000000 0.000000
vn 0.000000 -1.000000 0.000000
vn 0.000000 -1.000000 0.000000
vn 1.000000 0.000000 0.000000
vn 1.000000 0.000000 0.000000
vn 1.000000 0.000000 0.000000
vn 1.000000 0.000000 0.000000
vn -1.000000 0.000000 0.000000
vn -1.000000 0.000000 0.000000
vn -1.000000 0.000000 0.000000
vn -1.000000 0.000000 0.000000
s off
g body:pCube1group1
usemtl lambert2SG
f 1/15/1 2/2/2 4/23/3 3/21/4
f 3/4/5 4/24/6 6/5/7 5/19/8
f 5/6/9 6/20/10 8/7/11 7/16/12
f 7/8/13 8/17/14 2/9/15 1/10/16
f 2/18/17 8/11/18 6/12/19 4/3/20
f 7/13/21 1/1/22 3/22/23 5/14/24
