# This file uses centimeters as units for non-parametric coordinates.

mtllib sphere.mtl
g default
v -0.500000 -0.500000 0.500000
v 0.500000 -0.500000 0.500000
v -0.500000 0.500000 0.500000
v 0.500000 0.500000 0.500000
v -0.500000 0.500000 -0.500000
v 0.500000 0.500000 -0.500000
v -0.500000 -0.500000 -0.500000
v 0.500000 -0.500000 -0.500000
vt 0.567477 0.495346
vt 0.112224 0.507133
vt 0.120093 0.740291
vt 0.621323 0.618613
vt 0.871323 0.868613
vt 0.406011 0.742982
vt 0.262677 0.507018
vt 0.255842 0.765848
vt 0.369480 0.973311
vt 0.255842 0.973311
vt 0.262582 0.507133
vt 0.262582 0.740291
vt 0.414328 0.495346
vt 0.414328 0.724974
vt 0.008965 0.507133
vt 0.406011 0.507018
vt 0.369480 0.765848
vt 0.120093 0.507133
vt 0.621323 0.868613
vt 0.262677 0.742982
vt 0.008965 0.740291
vt 0.567477 0.724974
vt 0.112224 0.740291
vt 0.871323 0.618613
vn 0.000000 0.000000 1.000000
vn 0.000000 0.000000 1.000000
vn 0.000000 0.000000 1.000000
vn 0.000000 0.000000 1.000000
vn 0.000000 1.000000 0.000000
vn 0.000000 1.000000 0.000000
vn 0.000000 1.000000 0.000000
vn 0.000000 1.000000 0.000000
vn 0.000000 0.000000 -1.000000
vn 0.000000 0.000000 -1.000000
vn 0.000000 0.000000 -1.000000
vn 0.000000 0.000000 -1.000000
vn 0.000000 -1.000000 0.000000
vn 0.000000 -1.000000 0.000000
vn 0.000000 -1.000000 0.000000
vn 0.000000 -1.000000 0.000000
vn 1.000000 0.000000 0.000000
vn 1.000000 0.000000 0.000000
vn 1.000000 0.000000 0.000000
vn 1.000000 0.000000 0.000000
vn -1.000000 0.000000 0.000000
vn -1.000000 0.000000 0.000000
vn -1.000000 0.000000 0.000000
vn -1.000000 0.000000 0.000000
s off
g sphere:pCube1
usemtl lambert2SG
f 1/15/1 2/2/2 4/23/3 3/21/4
f 3/4/5 4/24/6 6/5/7 5/19/8
f 5/6/9 6/20/10 8/7/11 7/16/12
f 7/8/13 8/17/14 2/9/15 1/10/16
f 2/18/17 8/11/18 6/12/19 4/3/20
f 7/13/21 1/1/22 3/22/23 5/14/24
